P3
12 12
255
199 223 255
197 222 255
196 222 255
195 221 255
194 221 255
194 220 255
193 220 255
194 220 255
194 221 255
195 221 255
196 222 255
197 222 255
202 225 255
200 224 255
199 223 255
198 223 255
197 222 255
196 222 255
196 222 255
196 222 255
197 222 255
198 223 255
199 223 255
200 224 255
205 226 255
204 226 255
202 225 255
201 225 255
200 224 255
200 224 255
200 224 255
200 224 255
200 224 255
201 225 255
202 225 255
204 226 255
167 194 228
208 228 255
207 227 255
206 227 255
205 226 255
204 226 255
204 226 255
204 226 255
205 226 255
206 227 255
207 227 255
208 228 255
164 193 228
164 192 228
172 197 228
210 229 255
210 229 255
63 100 181
61 97 156
56 91 90
210 229 255
210 229 255
172 170 114
164 167 114
179 201 228
178 200 228
56 88 140
188 205 228
62 98 156
61 97 156
58 93 128
63 99 156
63 100 181
188 177 114
58 78 80
178 173 114
198 211 228
198 211 228
55 84 108
24 40 56
63 99 156
56 90 90
62 99 181
58 90 128
61 95 128
26 37 40
57 78 80
198 182 114
155 174 0
132 152 0
45 69 80
132 154 0
56 89 90
63 96 128
58 92 90
53 83 0
53 83 0
152 151 0
31 44 40
135 133 0
120 134 0
157 177 0
103 115 0
133 153 0
177 199 0
51 77 90
46 74 0
49 79 0
148 171 0
153 163 0
138 121 0
119 113 0
100 109 0
109 120 0
162 181 0
143 166 0
82 93 0
32 53 0
101 113 0
119 117 0
35 52 0
92 101 0
131 150 0
137 137 0
165 185 0
137 153 0
145 171 0
153 172 0
132 153 0
91 118 0
130 153 0
150 164 0
127 151 0
94 110 0
151 164 0
175 198 0
152 169 0
157 177 0
174 197 0
155 174 0
111 135 0
155 178 0
147 170 0
126 151 0
140 144 0
153 172 0
148 162 0
95 113 0
