P3
20 20
255
199 223 255
198 223 255
197 222 255
196 222 255
196 222 255
195 221 255
194 221 255
194 221 255
194 220 255
193 220 255
193 220 255
193 220 255
194 220 255
194 221 255
194 221 255
195 221 255
196 222 255
196 222 255
197 222 255
198 223 255
200 224 255
200 224 255
199 223 255
198 223 255
197 222 255
197 222 255
196 222 255
196 222 255
195 221 255
195 221 255
195 221 255
195 221 255
195 221 255
196 222 255
196 222 255
197 222 255
197 222 255
198 223 255
199 223 255
200 224 255
202 225 255
201 225 255
201 224 255
200 224 255
199 223 255
199 223 255
198 223 255
197 222 255
197 222 255
197 222 255
197 222 255
197 222 255
197 222 255
197 222 255
198 223 255
199 223 255
199 223 255
200 224 255
201 224 255
201 225 255
204 226 255
203 226 255
203 225 255
202 225 255
201 225 255
201 224 255
200 224 255
200 224 255
199 223 255
199 223 255
199 223 255
199 223 255
199 223 255
200 224 255
200 224 255
201 224 255
201 225 255
202 225 255
203 225 255
203 226 255
206 227 255
206 227 255
205 227 255
204 226 255
204 226 255
203 225 255
202 225 255
202 225 255
202 225 255
201 225 255
201 225 255
201 225 255
202 225 255
202 225 255
202 225 255
203 225 255
204 226 255
204 226 255
205 227 255
206 227 255
167 194 228
180 201 228
207 228 255
207 227 255
206 227 255
206 227 255
205 227 255
205 226 255
204 226 255
204 226 255
204 226 255
204 226 255
204 226 255
205 226 255
205 227 255
206 227 255
206 227 255
207 227 255
207 228 255
180 174 114
162 191 228
162 191 228
166 193 228
183 202 228
209 229 255
208 228 255
208 228 255
208 228 255
61 97 167
62 98 167
62 99 169
62 99 175
62 97 167
208 228 255
208 228 255
208 228 255
209 229 255
183 175 114
166 167 114
162 166 114
167 194 228
166 193 228
166 194 228
169 195 228
179 200 228
211 230 255
211 230 255
62 97 162
62 98 163
61 98 163
61 96 151
63 100 167
60 95 152
61 96 159
211 230 255
211 230 255
179 173 114
169 169 114
166 168 114
166 167 114
176 199 228
175 198 228
175 198 228
175 198 228
178 200 228
215 232 255
60 96 163
61 97 157
61 97 153
63 99 161
60 95 151
63 98 153
63 99 166
61 96 154
58 88 138
215 232 255
178 173 114
175 172 114
175 171 114
175 172 114
187 204 228
186 204 228
186 204 228
55 88 152
48 77 126
42 68 128
59 93 140
61 96 153
61 95 137
62 97 149
60 96 137
61 96 140
61 96 141
60 95 141
58 89 130
38 49 40
48 65 56
54 72 65
186 177 114
186 177 114
198 211 228
198 211 228
198 211 228
52 82 114
46 73 109
26 43 77
57 90 138
57 90 129
60 94 134
60 93 122
61 96 147
60 94 135
61 95 146
56 88 115
56 87 112
20 26 17
47 60 42
53 71 60
198 182 114
198 182 114
151 171 0
149 168 0
129 141 0
48 76 80
44 70 88
34 55 50
55 87 124
57 90 104
58 92 126
59 93 133
59 93 125
61 95 138
60 94 128
56 89 117
56 83 104
34 42 12
44 59 42
49 64 40
139 137 0
152 149 0
143 162 0
138 158 0
131 149 0
96 112 0
84 97 0
171 195 0
50 80 85
58 90 121
59 92 108
57 91 108
55 88 105
53 84 106
56 89 105
57 88 119
49 73 57
172 196 0
78 77 0
103 101 0
123 124 0
135 133 0
145 164 0
136 155 0
126 143 0
118 132 0
126 143 0
161 182 0
147 169 0
52 82 90
52 82 84
55 88 95
53 85 76
54 85 102
55 86 109
49 76 84
158 178 0
159 178 0
129 118 0
113 110 0
125 120 0
131 124 0
125 143 0
133 150 0
122 137 0
102 114 0
143 160 0
139 158 0
113 131 0
98 117 0
48 77 72
48 77 72
51 81 84
53 82 85
46 73 72
122 137 0
121 132 0
137 149 0
141 148 0
107 93 0
110 103 0
119 110 0
126 139 0
90 99 0
102 113 0
122 137 0
122 139 0
116 133 0
117 134 0
103 120 0
99 115 0
88 101 0
92 101 0
87 96 0
95 107 0
119 134 0
120 133 0
117 130 0
115 123 0
106 109 0
117 117 0
84 68 0
122 137 0
136 152 0
135 152 0
141 158 0
117 135 0
134 152 0
138 158 0
124 144 0
126 146 0
130 148 0
114 131 0
111 128 0
110 124 0
126 144 0
136 153 0
124 137 0
144 160 0
130 143 0
138 145 0
128 131 0
137 155 0
142 161 0
150 169 0
137 158 0
146 166 0
146 167 0
129 150 0
137 158 0
140 159 0
135 155 0
135 154 0
136 154 0
139 160 0
118 137 0
147 165 0
152 171 0
133 149 0
140 154 0
137 154 0
142 153 0
159 179 0
159 179 0
141 161 0
145 166 0
145 168 0
145 166 0
144 164 0
151 172 0
147 170 0
148 171 0
145 166 0
150 172 0
140 161 0
141 162 0
141 161 0
146 166 0
155 171 0
156 176 0
157 175 0
143 160 0
148 167 0
153 175 0
162 183 0
156 177 0
156 176 0
153 173 0
144 166 0
155 177 0
140 162 0
144 165 0
154 174 0
147 165 0
147 168 0
153 174 0
151 173 0
149 168 0
152 173 0
150 168 0
159 180 0
151 167 0
