P3
10 10
255
199 223 255
197 222 255
196 222 255
194 221 255
194 220 255
193 220 255
194 220 255
194 221 255
196 222 255
197 222 255
202 225 255
201 224 255
199 223 255
198 223 255
197 222 255
197 222 255
197 222 255
198 223 255
199 223 255
201 224 255
206 227 255
205 227 255
204 226 255
202 225 255
202 225 255
201 225 255
202 225 255
202 225 255
204 226 255
205 227 255
162 191 228
166 193 228
209 229 255
208 228 255
61 96 165
60 96 147
61 97 166
208 228 255
209 229 255
166 167 114
176 199 228
175 198 228
178 200 228
60 95 160
60 95 147
58 94 128
63 98 165
59 92 158
178 173 114
175 171 114
198 211 228
198 211 228
47 74 121
58 91 130
62 96 138
64 99 147
58 92 138
53 79 70
47 61 43
198 182 114
128 148 0
127 143 0
94 106 0
52 82 114
59 93 116
57 90 104
61 96 138
49 74 77
84 82 0
143 140 0
130 148 0
114 127 0
136 150 0
114 131 0
46 73 73
53 82 90
48 73 90
79 88 0
116 116 0
101 93 0
148 164 0
102 116 0
137 152 0
105 124 0
163 182 0
117 136 0
101 113 0
141 160 0
130 144 0
130 144 0
134 154 0
143 165 0
123 145 0
146 168 0
153 176 0
142 165 0
132 155 0
136 151 0
136 146 0
170 188 0
