P3
12 12
255
199 223 255
197 222 255
196 222 255
195 221 255
194 221 255
194 220 255
193 220 255
194 220 255
194 221 255
195 221 255
196 222 255
197 222 255
202 225 255
200 224 255
199 223 255
198 223 255
197 222 255
196 222 255
196 222 255
196 222 255
197 222 255
198 223 255
199 223 255
200 224 255
205 226 255
204 226 255
202 225 255
201 225 255
200 224 255
200 224 255
200 224 255
200 224 255
200 224 255
201 225 255
202 225 255
204 226 255
167 194 228
208 228 255
207 227 255
206 227 255
205 226 255
204 226 255
204 226 255
204 226 255
205 226 255
206 227 255
207 227 255
208 228 255
164 193 228
164 192 228
172 197 228
210 229 255
210 229 255
61 97 161
61 95 161
60 95 114
210 229 255
210 229 255
172 170 114
164 167 114
179 201 228
178 200 228
55 87 144
188 205 228
61 97 161
60 94 114
63 100 181
64 100 161
63 98 161
188 177 114
55 75 72
178 173 114
198 211 228
198 211 228
44 69 121
29 49 70
59 95 140
61 96 140
61 97 140
60 93 140
66 101 161
29 36 16
51 69 62
198 182 114
155 176 0
140 158 0
46 70 72
155 176 0
56 90 114
58 93 114
55 89 140
60 92 114
47 71 80
128 127 0
48 63 51
127 125 0
136 154 0
126 144 0
103 120 0
153 176 0
105 128 0
51 81 80
61 95 114
39 63 80
133 148 0
174 191 0
109 96 0
68 71 0
133 149 0
128 140 0
123 142 0
131 146 0
84 104 0
82 99 0
36 55 0
40 62 0
48 64 0
112 135 0
109 106 0
121 132 0
133 152 0
116 136 0
140 161 0
153 173 0
165 189 0
108 122 0
147 167 0
148 167 0
154 171 0
154 176 0
127 134 0
111 119 0
160 180 0
147 168 0
147 171 0
169 193 0
142 165 0
139 159 0
131 154 0
153 178 0
140 163 0
142 162 0
163 178 0
172 190 0
