P3
20 20
255
199 223 255
198 223 255
197 222 255
196 222 255
196 222 255
195 221 255
194 221 255
194 221 255
194 220 255
193 220 255
193 220 255
193 220 255
194 220 255
194 221 255
194 221 255
195 221 255
196 222 255
196 222 255
197 222 255
198 223 255
200 224 255
200 224 255
199 223 255
198 223 255
197 222 255
197 222 255
196 222 255
196 222 255
195 221 255
195 221 255
195 221 255
195 221 255
195 221 255
196 222 255
196 222 255
197 222 255
197 222 255
198 223 255
199 223 255
200 224 255
202 225 255
201 225 255
201 224 255
200 224 255
199 223 255
199 223 255
198 223 255
197 222 255
197 222 255
197 222 255
197 222 255
197 222 255
197 222 255
197 222 255
198 223 255
199 223 255
199 223 255
200 224 255
201 224 255
201 225 255
204 226 255
203 226 255
203 225 255
202 225 255
201 225 255
201 224 255
200 224 255
200 224 255
199 223 255
199 223 255
199 223 255
199 223 255
199 223 255
200 224 255
200 224 255
201 224 255
201 225 255
202 225 255
203 225 255
203 226 255
206 227 255
206 227 255
205 227 255
204 226 255
204 226 255
203 225 255
202 225 255
202 225 255
202 225 255
201 225 255
201 225 255
201 225 255
202 225 255
202 225 255
202 225 255
203 225 255
204 226 255
204 226 255
205 227 255
206 227 255
167 194 228
180 201 228
207 228 255
207 227 255
206 227 255
206 227 255
205 227 255
205 226 255
204 226 255
204 226 255
204 226 255
204 226 255
204 226 255
205 226 255
205 227 255
206 227 255
206 227 255
207 227 255
207 228 255
180 174 114
162 191 228
162 191 228
166 193 228
183 202 228
209 229 255
208 228 255
208 228 255
208 228 255
61 99 181
60 96 156
64 99 156
65 101 181
57 88 99
208 228 255
208 228 255
208 228 255
209 229 255
183 175 114
166 167 114
162 166 114
167 194 228
166 193 228
166 194 228
169 195 228
179 200 228
211 230 255
211 230 255
59 96 156
63 100 181
58 92 90
63 100 181
62 99 181
64 98 128
58 95 156
211 230 255
211 230 255
179 173 114
169 169 114
166 168 114
166 167 114
176 199 228
175 198 228
175 198 228
175 198 228
178 200 228
215 232 255
62 98 156
52 83 151
64 99 156
59 94 128
57 91 90
61 98 181
61 97 156
66 98 161
55 84 137
215 232 255
178 173 114
175 172 114
175 171 114
175 172 114
187 204 228
186 204 228
186 204 228
55 87 140
49 76 138
51 83 153
56 87 151
60 96 156
63 98 156
60 95 128
59 94 128
63 99 156
65 102 181
62 96 128
60 89 140
41 49 25
56 74 72
54 74 57
186 177 114
186 177 114
198 211 228
198 211 228
198 211 228
53 85 140
50 80 108
25 40 72
58 93 128
47 80 90
61 95 128
60 95 128
59 93 90
48 79 90
53 86 128
52 80 128
63 95 156
24 30 4
44 56 26
54 71 57
198 182 114
198 182 114
141 157 0
156 177 0
151 174 0
46 73 80
49 76 117
27 47 0
35 56 90
58 92 128
61 95 128
61 96 128
54 85 128
61 95 128
67 102 156
59 91 128
61 92 99
28 33 18
39 45 18
51 69 57
156 151 0
151 151 0
149 173 0
110 131 0
132 153 0
77 90 0
12 26 0
179 200 0
47 76 90
58 92 90
58 92 90
63 99 156
60 93 90
47 73 0
57 91 90
60 95 128
42 69 94
179 200 0
37 49 0
36 48 0
134 133 0
135 134 0
140 156 0
69 87 0
123 140 0
79 88 0
125 139 0
132 152 0
142 162 0
58 91 80
59 92 156
56 91 90
66 102 181
56 91 90
54 88 0
31 51 0
142 158 0
169 187 0
110 104 0
102 88 0
105 109 0
134 128 0
107 120 0
158 175 0
119 134 0
92 108 0
163 182 0
159 181 0
71 83 0
134 151 0
48 78 0
52 83 90
57 88 90
51 81 90
35 57 90
147 162 0
169 187 0
130 133 0
142 157 0
94 71 0
134 132 0
92 74 0
81 95 0
118 128 0
126 138 0
119 135 0
123 132 0
38 60 0
131 151 0
113 137 0
128 143 0
45 70 0
100 114 0
23 35 0
90 110 0
115 127 0
124 142 0
140 160 0
134 143 0
144 142 0
116 116 0
74 50 0
105 114 0
135 152 0
138 153 0
110 128 0
27 36 0
148 169 0
94 114 0
120 141 0
122 146 0
114 132 0
175 189 0
95 117 0
172 194 0
113 120 0
173 197 0
96 109 0
102 120 0
150 163 0
129 143 0
165 184 0
165 193 0
162 181 0
87 103 0
130 151 0
152 174 0
131 141 0
152 175 0
154 176 0
126 150 0
174 195 0
134 156 0
77 88 0
124 144 0
95 106 0
145 160 0
128 135 0
147 172 0
146 153 0
133 124 0
138 154 0
174 198 0
182 202 0
172 197 0
162 186 0
131 150 0
165 184 0
167 191 0
112 126 0
89 110 0
164 190 0
121 145 0
131 152 0
145 161 0
115 135 0
139 153 0
155 174 0
154 156 0
162 173 0
121 136 0
153 163 0
179 200 0
170 195 0
153 173 0
152 176 0
150 174 0
134 155 0
146 169 0
129 153 0
146 172 0
177 196 0
124 146 0
176 196 0
119 142 0
152 172 0
158 176 0
127 150 0
158 178 0
148 164 0
170 188 0
156 169 0
